
<svg width="24px" height="24px" viewBox="0 0 24 24" version="1.1" xmlns="http://www.w3.org/2000/svg" xmlns:xlink="http://www.w3.org/1999/xlink">
                <g id="Page-1" stroke="none" stroke-width="1" fill="none" fill-rule="evenodd">
                        <g id="who-we-are" transform="translate(-473.000000, -990.000000)" fill="#E00D47" fill-rule="nonzero">
                                    <g id="iconmonstr-instagram-1-(1)" transform="translate(473.000000, 990.000000)">
                                                    <path d="M11.984,16.815 C14.58,16.815 16.69,14.704 16.69,12.108 C16.69,10.699 16.067,9.434 15.084,8.57 C14.738,8.267 14.349,8.014 13.926,7.822 C13.333,7.552 12.677,7.401 11.985,7.401 C11.293,7.401 10.636,7.552 10.044,7.822 C9.62,8.016 9.23,8.269 8.886,8.571 C7.901,9.435 7.278,10.7 7.278,12.109 C7.278,14.704 9.39,16.815 11.984,16.815 Z M12,8.631 C13.921,8.631 15.479,10.188 15.479,12.109 C15.479,14.03 13.921,15.588 12,15.588 C10.079,15.588 8.521,14.031 8.521,12.109 C8.521,10.188 10.079,8.631 12,8.631 Z M17.223,9 L24,9 L24,19.278 C24,21.886 21.886,24 19.278,24 L4.785,24 C2.177,24 -1.77635684e-15,21.886 -1.77635684e-15,19.278 L-1.77635684e-15,9 L6.747,9 C6.203,9.913 5.875,10.969 5.875,12.109 C5.875,15.483 8.61,18.218 11.984,18.218 C15.358,18.218 18.093,15.483 18.093,12.109 C18.094,10.969 17.766,9.913 17.223,9 Z M19.278,1.77635684e-15 L7,1.77635684e-15 L7,5 L6,5 L6,1.77635684e-15 L5,1.77635684e-15 L5,5 L4,5 L4,0.077 C3.654,0.134 3.318,0.22 3,0.347 L3,5 L2,5 L2,0.898 C0.798,1.755 -1.77635684e-15,3.144 -1.77635684e-15,4.722 L-1.77635684e-15,8 L7.473,8 C8.64,6.718 10.271,6 11.984,6 C13.706,6 15.335,6.725 16.495,8 L24,8 L24,4.722 C24,2.114 21.886,8.8817842e-16 19.278,1.77635684e-15 Z M22,5.265 C22,5.671 21.667,6 21.255,6 L18.744,6 C18.333,6 18,5.671 18,5.265 L18,2.735 C18,2.329 18.333,2 18.744,2 L21.255,2 C21.667,2 22,2.329 22,2.735 L22,5.265 Z" id="Shape"></path>
                                                                </g>
                                                                        </g>
                                                                            </g>
                                                                            </svg>
